<?xml version="1.0" encoding="UTF-8"?>
<svg viewBox="0 0 1052.3622 744.09448" xmlns="http://www.w3.org/2000/svg" xmlns:xlink="http://www.w3.org/1999/xlink">
 <defs>
  <linearGradient id="d" x1="-239.39" x2="-219.38" y1="819.75" y2="786.43" gradientTransform="matrix(.94298 0 0 1.0605 45.314 33.324)" gradientUnits="userSpaceOnUse">
   <stop stop-color="#bddef9" offset="0"/>
   <stop stop-color="#bddef9" stop-opacity="0" offset="1"/>
  </linearGradient>
  <radialGradient id="c" cx="-275.86" cy="1062.9" r="195.23" fx="-278.02" gradientTransform="matrix(1.1897 0 0 .84053 45.314 33.324)" gradientUnits="userSpaceOnUse">
   <stop stop-color="#9fcff5" offset="0"/>
   <stop stop-color="#9fcff5" stop-opacity="0" offset="1"/>
  </radialGradient>
  <radialGradient id="b" cx="-270.41" cy="944.06" r="60.126" fx="-268.9" fy="944.96" gradientTransform="matrix(1.0866 0 0 .92026 45.314 33.324)" gradientUnits="userSpaceOnUse">
   <stop stop-color="#6db8f2" offset="0"/>
   <stop stop-color="#a2d1f5" stop-opacity="0" offset="1"/>
  </radialGradient>
  <radialGradient id="a" cx="-196.64" cy="1148.4" r="43.915" fx="-197" fy="1149.8" gradientTransform="matrix(1.4359 0 0 .69644 45.314 33.324)" gradientUnits="userSpaceOnUse">
   <stop stop-color="#a9d4f6" offset="0"/>
   <stop stop-color="#a9d4f6" stop-opacity="0" offset="1"/>
  </radialGradient>
 </defs>
 <g transform="matrix(1.7132 0 0 1.7132 868 -1129.2)">
  <path d="m-205.27 936.42c-11.208 17.726-34.021 29.282-54.376 20.683-10.475-4.675-4.5021-25.435-21.049-14.136-16.014 10.942-34.079-2.9728-39.89-18.467-9.7883-14.41-3.3075-36.728 5.5122-41.949-8.2222-14.377-15.108-34.732-6.6361-49.867 15.564-5.5484 36.081 6.3795 46.228-13.281 9.8728-11.331 25.835-25.486 41.463-15.716 7.904 11.464 17.654 17.481 31.216 10.276 16.901-3.8189 39.166-11.916 53.194 2.5271 4.7492 13.306 11.808 26.441 27.604 17.373 20.638-4.0431 32.234 21.796 29.837 38.97-4.8878 14.177-22.115 25.424-8.5465 40.744 5.3975 13.283 1.538 38.151-17.26 36.27-18.075-4.7099-27.212 14.853-44.138 15.181-17.971 4.3226-35.944-7.3607-42.355-24.048l-0.59648-2.3324-0.20695-2.2281-1e-5 -2e-5z" fill="url(#c)" fill-rule="evenodd"/>
  <path d="m-308.47 883.65c-9.7815-12.692-15.442-29.47-14.286-45.45 4.2258-15.984 34.664-3.4077 35.096-0.56221-9.2463 10.998-31.528-18.833-29.472 3.1853-1.6272 14.222 9.1272 30.28 13.301 39.457l-4.639 3.3704z"/>
  <path d="m-281.97 848.62c-11.307-16.611 4.2767-36.018 20.368-41.408 14.159-4.9512 36.421 7.1958 41.271 15.834-10.281 5.6518-20.796-12.638-33.064-12.193-15.193-7.1563-31.419 14.629-25.087 28.593 5.8497 6.835 0.9632 5.6155-3.4892 9.1737z"/>
  <path d="m-224.68 826.91c8.406-21.957 39.325-26.116 58.049-15.561 12.585 7.2854 31.648 24.781 26.991 38.262-8.2384 3.8479-7.2038-19.014-16.72-22.343-12.969-14.389-35.909-24.102-54.134-14.24-5.9621 4.3474-6.2959 12.124-14.186 13.882z"/>
  <path d="m-143.39 843.13c-13.481 7.6155 11.887-8.4806 19.045-7.8553 20.066-2.1008 38.012 27.505 20.208 41.587-6.6255 5.4468-13.029 9.547-9.7685 7.3513-11.199 5.2282 15.063-9.4478 10.737-18.018 3.1259-20.567-23.639-34.253-39.817-22.559-9.1142 5.3786-7.0004 4.4138-0.40406-0.50525z"/>
  <path d="m-115.4 887.12c11.878 9.5894 26.01 25.98 20.152 42.052-5.4414 14.134-32.454 25.439-40.312 20.54 9.5396-5.8421 25.073-1.2472 32.018-13.375 10.732-14.557-1.9179-33.085-13.861-42.442-8.9583-2.7184-0.39279-3.6536 2.0028-6.7746z"/>
  <path d="m-130.06 940.44c2.8088 16.678-16.684 27.055-30.96 27.245-19.413 0.14904-40.789-10.555-45.243-30.952 12.223-10.093 9.6448 20.387 23.952 20.433 11.392 6.8776 33.106 8.9423 39.96 2.8898 8.5488-5.8661 2.7514-16.086 12.29-19.615z"/>
  <path d="m-207.17 935.63c17.571-9.9663-7.9042 11.309-12.364 15.034-11.398 11.976-41.389 13.224-43.995-3.3194 8.6219-4.5981 16.422 15.76 29.326 8.6654 12.058-2.0881 27.134-22.367 31.671-23.75l-4.639 3.3704z"/>
  <path d="m-257.82 931.74c-10.662 22.795-50.207 20.189-57.032-4.5241-3.7501-13.526-7.3762-35.111 7.3444-43.073 2.9487-0.23652-10.122 18.043-4.712 26.083-0.91728 21.528 19.163 36.706 39.546 34.181 5.7134-3.6787 7.5249-10.906 14.854-12.667z"/>
  <path d="m-264.48 837c-7.9403-0.82563-19.943 16.861-21.544 12.522 3.412-7.3312 29.028-19.318 24.59-14.735l-3.0463 2.2133z"/>
  <path d="m-113.9 876c-1.8101 10.142 0.23728 26.941-12.178 30.272 8.9111-9.0566-0.82621-27.339 12.178-30.272z"/>
  <path d="m-226.11 928.27c-9.3188 9.7916-38.459 10.906-41.198 4.7825 10.579-4.1717 24.885 4.2328 36.016-2.6363l5.1813-2.1462z"/>
  <path d="m-304.47 895.65c-5.6379-7.0347 1.861-35.268 6.2728-26.376-5.7372 9.514 5.304 22.051-6.2728 26.376z"/>
  <path d="m-209.27 840.42c-24.127-14.575-57.596-10.849-78.122 8.5442-12.153 11.405-20.788 32.92-12.515 48.913 8.3021 14.696 21.214 26.6 34.917 36.182 18.527 5.8029 40.762 5.8869 58.819-1.8284 18.303-11.669 33.415-34.469 25.655-56.748-3.9912-18.928-16.344-36.788-36.701-39.969-5.2401-1.3205-10.636-2.0805-16.044-2.0935" fill="url(#b)" fill-rule="evenodd"/>
  <path d="m-261.25 860.42c-16.874-4.6704-30.151-31.986-8.3822-40.225 17.967-15.686 38.222 4.2448 55.939 4.0059 14.401-6.4537 32.167-15.612 47.031-5.1588 18.556 7.6233 26.184 32.158 6.5861 43.923-24.513 21.19-60.507 18.83-89.47 9.5623-7.8022-3.3287-11.547-11.578-14.137-19.107" fill="url(#a)" fill-rule="evenodd"/>
  <path d="m-134.69 942.42c-9.95 15.43-34.1 12.341-49.239 7.9666-16.192-9.3604-19.184-29.436-19.688-46.41-2.7652-15.306-8.1008-36.753 8.1286-46.388 16.286-9.0204 34.992-3.0427 52.33-5.343 17.084-11.802 30.351 5.4023 29.982 21.898 0.91016 24.005-29.408 33.019-37.407 49.957 8.4597 3.2188 26.322 4.8951 15.894 18.319z" fill="url(#d)" fill-rule="evenodd"/>
 </g>
</svg>
