<?xml version="1.0" encoding="UTF-8"?>
<!DOCTYPE svg  PUBLIC '-//W3C//DTD SVG 1.1//EN'  'http://www.w3.org/Graphics/SVG/1.1/DTD/svg11.dtd'>
<svg version="1.1" viewBox="0 0 1249 1249" xmlns="http://www.w3.org/2000/svg">
 <path d="m641.09 980.93c-154.59 0-279.9-126.79-279.9-283.19s129.8-322.81 283.8-462.81c148 136 276 306.41 276 462.81s-125.32 283.19-279.9 283.19z" fill="#73cdfb"/>
 <path d="m619.6 339.37c-45.526 24.751-154.79 162.24-177.98 208.62-17.727 35.453-32 86.326-32 126 0 20.852-13.677 56.994 8 70 3.43 2.058 8 0 12 0 28.735 0 41.756-23.268 50-48 35.551-106.65 64.738-217.11 128-312 7.817-11.725 20.891-27.325 16-42" fill="#fff" fill-opacity=".525"/>
 <path d="m361.83 679.62c162.64 416.28 514.64 116.28 551.37 80.1-15.852 84.003-76.696 159.51-156.92 196.2-36.866 16.858-74.762 24.498-115.19 25.016-21.26-7e-3 -42.506-2.42-63.213-7.252-80.369-18.757-148.86-73.505-186.07-147.01-19.474-38.475-28.92-78.635-30.53-121.61-0.181-11.242-0.175-4.5 0.291-20.224z" fill="#5191b3" fill-opacity=".347"/>
 <path d="m861.4 646.95c-18.47 4.454-30.98 31.865-41.672 47.025-15.28 21.663-23.023 129.82 27.025 121.17 7.608-1.314 16.884-1.325 23.309-6.057 28.77-21.187 75.632-177.47-13.788-162.02" fill="#fff" fill-opacity=".274"/>
 <path d="m1015.9 567.86c-82.958 0-150.21-64.178-150.21-143.35 0-79.168 69.659-163.4 152.3-234.27 79.423 68.842 148.11 155.1 148.11 234.27 0 79.168-67.25 143.35-150.21 143.35z" fill="#73cdfb"/>
 <path d="m1004.4 243.11c-24.431 12.529-83.066 82.125-95.51 105.6-9.513 17.946-17.172 43.697-17.172 63.78 0 10.555-7.34 28.85 4.293 35.433 1.84 1.042 4.293 0 6.44 0 15.42 0 22.408-11.778 26.832-24.297 19.078-53.986 34.741-109.9 68.69-157.93 4.195-5.935 11.211-13.832 8.586-21.26" fill="#fff" fill-opacity=".525"/>
 <path d="m866.06 415.34c87.278 210.71 276.18 58.858 295.89 40.546-8.507 42.521-41.158 80.742-84.213 99.314-19.783 8.533-40.12 12.4-61.816 12.662-11.408-3e-3 -22.81-1.224-33.922-3.67-43.13-9.495-79.886-37.208-99.852-74.417-10.451-19.476-15.52-39.804-16.384-61.559-0.097-5.691-0.094-2.278 0.156-10.238z" fill="#5191b3" fill-opacity=".347"/>
 <path d="m1134.1 398.8c-9.911 2.255-16.625 16.13-22.363 23.803-8.2 10.966-12.355 65.712 14.503 61.334 4.083-0.665 9.061-0.671 12.509-3.066 15.439-10.724 40.587-89.833-7.399-82.012" fill="#fff" fill-opacity=".274"/>
 <path d="m203.28 777.17c-55.767 0-100.98-50.388-100.98-112.54 0-62.157 46.827-128.29 102.38-183.93 53.391 54.05 99.567 121.78 99.567 183.93 0 62.157-45.208 112.54-100.98 112.54z" fill="#73cdfb"/>
 <path d="m195.53 522.2c-16.423 9.837-55.84 64.479-64.205 82.909-6.395 14.09-11.544 34.308-11.544 50.075 0 8.287-4.934 22.651 2.886 27.82 1.237 0.818 2.886 0 4.329 0 10.366 0 15.064-9.248 18.038-19.077 12.824-42.385 23.354-86.282 46.176-124 2.82-4.66 7.536-10.86 5.772-16.692" fill="#fff" fill-opacity=".525"/>
 <path d="m102.54 657.42c58.671 165.44 185.66 46.21 198.91 31.833-5.719 33.385-27.669 63.393-56.611 77.974-13.299 6.7-26.971 9.736-41.555 9.942-7.669-3e-3 -15.334-0.962-22.804-2.882-28.993-7.454-53.702-29.212-67.124-58.427-7.025-15.29-10.433-31.251-11.014-48.331-0.065-4.468-0.063-1.789 0.105-8.038z" fill="#5191b3" fill-opacity=".347"/>
 <path d="m282.76 644.44c-6.663 1.771-11.176 12.664-15.034 18.689-5.512 8.609-8.305 51.591 9.75 48.155 2.744-0.523 6.091-0.527 8.409-2.408 10.378-8.42 27.284-70.53-4.974-64.389" fill="#fff" fill-opacity=".274"/>
</svg>
